<svg width="34" height="40" viewBox="0 0 34 40" fill="none" xmlns="http://www.w3.org/2000/svg">
<g filter="url(#filter0_d_96_160)">
<path d="M15.674 0.0339835C15.0111 0.102776 13.998 0.265375 13.3977 0.40296C8.51966 1.51614 5.08631 4.90572 4.15449 9.50854C3.96062 10.4591 3.94811 12.6605 4.12322 13.4985C4.67356 16.0876 6.09943 18.2577 7.83174 19.1645C8.48839 19.5084 8.68852 19.4459 8.87613 18.8455C9.04498 18.3264 9.42021 16.7692 9.42021 16.6066C9.42021 16.5191 9.27012 16.2564 9.07625 15.9938C7.05627 13.2984 7.3502 9.37096 9.77668 6.48169C11.0087 5.02454 12.8973 3.9739 15.0174 3.57991C15.8867 3.41731 17.9379 3.41731 18.8322 3.57991C21.7903 4.11774 23.9041 5.87506 24.8609 8.57672C25.2424 9.65863 25.33 10.259 25.33 11.7161C25.3362 12.8356 25.3112 13.1358 25.1924 13.7361C24.6295 16.5316 23.1161 18.7517 21.1587 19.6585C20.2018 20.1025 19.0011 20.2464 18.1506 20.0275C17.0249 19.7398 16.1806 18.8643 15.9805 17.7824C15.8679 17.182 15.968 16.738 16.7372 14.3115C17.6252 11.5098 17.8191 10.5717 17.6815 9.67739C17.594 9.12706 17.3376 8.54545 17.0249 8.20149C16.5621 7.68868 15.6991 7.38224 14.9111 7.45728C13.6666 7.56985 12.5534 8.39536 11.9593 9.63362C11.5653 10.4529 11.4777 10.8656 11.4402 11.9663C11.4027 13.0357 11.4902 13.6611 11.8029 14.5741L11.9843 15.1182L10.771 20.0525C10.1019 22.7667 9.52028 25.1681 9.48275 25.387C9.37018 26.0624 9.33891 27.7322 9.41396 28.7891C9.50151 29.9836 9.7204 31.7472 9.80795 31.9035C9.84547 31.9786 9.92052 32.0098 10.0331 31.9973C10.1707 31.9848 10.2895 31.8472 10.6647 31.2906C11.7591 29.6459 12.8098 27.7072 13.2538 26.5065C13.3726 26.1813 13.7604 24.8554 14.1168 23.5609L14.7547 21.2157L15.23 21.691C16.8498 23.3233 19.6515 23.7485 22.5533 22.8104C24.0354 22.3289 25.2549 21.5597 26.4619 20.3527C27.5876 19.2207 28.2568 18.2389 28.8946 16.7755C29.7014 14.9431 30.0391 13.1045 29.9766 10.9094C29.939 9.53356 29.8452 8.95195 29.4888 7.87629C28.1004 3.64245 24.098 0.621844 19.1449 0.052745C18.6259 -0.00353953 16.1806 -0.022301 15.674 0.0339835Z" fill="#3E8847"/>
</g>
<defs>
<filter id="filter0_d_96_160" x="0" y="0" width="33.9839" height="40" filterUnits="userSpaceOnUse" color-interpolation-filters="sRGB">
<feFlood flood-opacity="0" result="BackgroundImageFix"/>
<feColorMatrix in="SourceAlpha" type="matrix" values="0 0 0 0 0 0 0 0 0 0 0 0 0 0 0 0 0 0 127 0" result="hardAlpha"/>
<feOffset dy="4"/>
<feGaussianBlur stdDeviation="2"/>
<feComposite in2="hardAlpha" operator="out"/>
<feColorMatrix type="matrix" values="0 0 0 0 0 0 0 0 0 0 0 0 0 0 0 0 0 0 0.25 0"/>
<feBlend mode="normal" in2="BackgroundImageFix" result="effect1_dropShadow_96_160"/>
<feBlend mode="normal" in="SourceGraphic" in2="effect1_dropShadow_96_160" result="shape"/>
</filter>
</defs>
</svg>
