<svg width="20" height="20" viewBox="0 0 20 20" fill="none" xmlns="http://www.w3.org/2000/svg">
<path fill-rule="evenodd" clip-rule="evenodd" d="M7.87663 13.2062C4.03263 13.2062 0.749634 13.7872 0.749634 16.1152C0.749634 18.4432 4.01263 19.0452 7.87663 19.0452C11.7216 19.0452 15.0036 18.4632 15.0036 16.1362C15.0036 13.8092 11.7416 13.2062 7.87663 13.2062Z" stroke="#09270D" stroke-width="1.5" stroke-linecap="round" stroke-linejoin="round"/>
<path fill-rule="evenodd" clip-rule="evenodd" d="M7.8766 9.88591C10.3996 9.88591 12.4446 7.84091 12.4446 5.31791C12.4446 2.79491 10.3996 0.749908 7.8766 0.749908C5.3546 0.749908 3.3096 2.79491 3.3096 5.31791C3.3006 7.83191 5.3306 9.87691 7.8456 9.88591H7.8766Z" stroke="#09270D" stroke-width="1.5" stroke-linecap="round" stroke-linejoin="round"/>
<path d="M17.2037 6.6691V10.6791" stroke="#09270D" stroke-width="1.5" stroke-linecap="round" stroke-linejoin="round"/>
<path d="M19.2497 8.67401H15.1597" stroke="#09270D" stroke-width="1.5" stroke-linecap="round" stroke-linejoin="round"/>
</svg>
